<?xml version="1.0" standalone="no"?>
<!DOCTYPE svg PUBLIC "-//W3C//DTD SVG 20010904//EN"
 "http://www.w3.org/TR/2001/REC-SVG-20010904/DTD/svg10.dtd">
<svg version="1.0" xmlns="http://www.w3.org/2000/svg"
 width="200.000000pt" height="200.000000pt" viewBox="0 0 200.000000 200.000000"
 preserveAspectRatio="xMidYMid meet">
<metadata>
Created by potrace 1.15, written by Peter Selinger 2001-2017
</metadata>
<g transform="translate(0.000000,200.000000) scale(0.100000,-0.100000)"
fill="#000000" stroke="none">
<path d="M949 1983 c-10 -11 -15 -56 -17 -158 l-3 -142 -78 -16 c-78 -17 -188
-65 -251 -110 l-35 -25 -38 34 c-42 39 -84 44 -110 16 -28 -31 -21 -74 17
-111 l35 -34 -30 -44 c-49 -70 -89 -166 -107 -252 l-17 -81 -145 0 c-100 0
-150 -4 -158 -12 -16 -16 -16 -80 0 -96 8 -8 58 -12 158 -12 l147 0 12 -67
c15 -84 61 -196 106 -259 l34 -48 -34 -38 c-40 -43 -46 -85 -17 -111 30 -27
68 -21 110 18 l38 34 48 -34 c63 -45 175 -91 259 -106 l67 -12 0 -147 c0 -100
4 -150 12 -158 16 -16 80 -16 96 0 8 8 12 58 12 158 l0 147 67 12 c84 15 196
61 259 106 l48 34 38 -34 c43 -40 85 -46 111 -17 27 30 21 68 -18 110 l-34 38
33 47 c47 67 85 157 104 248 l17 79 145 0 c100 0 150 4 158 12 16 16 16 80 0
96 -8 8 -58 12 -158 12 l-145 0 -17 81 c-18 86 -58 182 -106 252 l-30 43 34
37 c84 91 -9 181 -95 93 l-34 -35 -44 30 c-85 59 -242 119 -310 119 -23 0 -23
1 -23 141 0 77 -5 149 -10 160 -14 25 -81 27 -101 2z m-88 -658 c92 -48 90
-193 -2 -241 -46 -23 -112 -14 -150 22 -63 60 -60 145 6 203 41 36 96 41 146
16z"/>
</g>
</svg>
